# xmcd CD database file
#
# Track frame offsets:
#	150
#	20756
#	34941
#	53236
#	74874
#	91327
#	113888
#	132423
#	148963
#	163818
#	185252
#	205983
#	231030
#
# Disc length: 3287 seconds
#
# Revision: 9
# Processed by: cddbd v1.5.2PL0 Copyright (c) Steve Scherf et al.
# Submitted via: CDex 1.70beta2
#
DISCID=c90cd50d
DTITLE=Various Artist - Simply Smooth Jazz 3
DYEAR=2004
DGENRE=Jazz
TTITLE0=Jamie Cullum - It Ain't Necessarily So
TTITLE1=Michel Simone - Don't Know Why
TTITLE2=Kymaera - It's Too Late
TTITLE3=Nyte Vision - Sacrifice
TTITLE4=Milestone - Georgia On My Mind
TTITLE5=Stacey Kent - They Can't Take That Away From Me
TTITLE6=Jazz Culture - If You're Looking For A Way Out
TTITLE7=Kymaera - Rhiannon
TTITLE8=Michel Simone - Come Away With Me
TTITLE9=Milestone - I Believe I Can Fly
TTITLE10=Kymaera - Fly Like An Eagle
TTITLE11=Kymaera - Babylon Sisters
TTITLE12=Nyte Vision - Here's That Rainy Day
EXTD=YEAR: 2004
EXTT0=
EXTT1=
EXTT2=
EXTT3=
EXTT4=
EXTT5=
EXTT6=
EXTT7=
EXTT8=
EXTT9=
EXTT10=
EXTT11=
EXTT12=
PLAYORDER=
